<?xml version="1.0" encoding="utf-8"?>
<!-- Generator: Adobe Illustrator 23.0.3, SVG Export Plug-In . SVG Version: 6.00 Build 0)  -->
<svg version="1.1" id="Layer_1" xmlns="http://www.w3.org/2000/svg" xmlns:xlink="http://www.w3.org/1999/xlink" x="0px" y="0px"
	 viewBox="0 0 1080 1080" style="enable-background:new 0 0 1080 1080;" xml:space="preserve">
<style type="text/css">
	.st0{fill:#45A4F8;}
	.st1{fill:#FFFFFF;}
</style>
<rect class="st0" width="1083.8" height="1083.8"/>
<g>
	<path class="st1" d="M396.3,396.8c3.4,0,6.1,3.1,5.6,6.5c-1.1,7.2-3.5,13.7-7.3,19.5c-4.8,7.5-11.6,13.3-20.3,17.4
		c-8.7,4.1-18.7,6.2-29.9,6.2c-18.5,0-33-6-43.7-18.1c-10.6-12-15.9-29-15.9-51v-7c0-13.8,2.4-25.8,7.2-36.2
		c4.8-10.3,11.7-18.3,20.7-24c9-5.6,19.4-8.5,31.3-8.5c17.1,0,30.8,4.5,41.1,13.5c8.9,7.7,14.5,17.8,16.8,30.5
		c0.6,3.5-2,6.6-5.5,6.6h-22.2c-2.8,0-5.2-2.1-5.6-4.9c-0.8-6.1-2.8-10.6-6.1-13.6c-4.1-3.7-10.2-5.6-18.5-5.6
		c-8.4,0-14.6,3.2-18.5,9.5c-3.9,6.3-6,16.4-6.2,30.2v9.9c0,15,1.9,25.7,5.7,32.2c3.8,6.4,10.3,9.7,19.5,9.7
		c7.8,0,13.7-1.8,17.9-5.5c3.2-2.9,5.3-7.1,6.1-12.6c0.4-2.8,2.8-4.8,5.6-4.8H396.3z"/>
	<path class="st1" d="M530.5,444.4H508c-3.1,0-5.6-2.5-5.6-5.6v-47.5c0-3.1-2.5-5.6-5.6-5.6h-38.7c-3.1,0-5.6,2.5-5.6,5.6v47.5
		c0,3.1-2.5,5.6-5.6,5.6h-22.7c-3.1,0-5.6-2.5-5.6-5.6V309.4c0-3.1,2.5-5.6,5.6-5.6h22.7c3.1,0,5.6,2.5,5.6,5.6V354
		c0,3.1,2.5,5.6,5.6,5.6h38.7c3.1,0,5.6-2.5,5.6-5.6v-44.6c0-3.1,2.5-5.6,5.6-5.6h22.5c3.1,0,5.6,2.5,5.6,5.6v129.4
		C536.1,441.9,533.6,444.4,530.5,444.4z"/>
	<path class="st1" d="M716.5,391.3c-0.6,16.8-4.8,30.2-12.6,40.2c-7.7,10-18,15-30.9,15c-5.3,0-9.9-1.1-14-3.4
		c-2.2-1.2-4.2-2.8-5.8-4.6c-2.1-2.3-5.6-2.5-7.9-0.4c-5.7,5.3-12.8,8-21.2,8c-6.2,0-11.6-1.8-16.2-5.5c-4.6-3.6-8-8.8-10.2-15.5
		c-2.2-6.7-2.8-14.3-2-22.8c1.9-16.1,7.1-29,15.6-38.8c8.4-9.8,18.8-14.7,31-14.7c9.5,0,17.6,2.2,24.4,6.6l3.3,2.2
		c1.7,1.1,2.7,3.1,2.5,5.2l-4.6,53.4c-1.1,9,2,13.4,9.3,13.4c5.5,0,10.1-3.5,13.8-10.5c3.7-7,5.7-15.9,6.1-26.8
		c1.1-21.5-3.4-38.1-13.4-49.8c-10-11.7-24.7-17.6-44-17.6c-12.3,0-23.2,3.1-32.8,9.4c-9.6,6.3-17.1,15.2-22.7,26.7
		c-5.6,11.5-8.7,24.6-9.4,39.3c-1,22.5,3.5,39.8,13.5,51.7c10,11.9,25.1,17.9,45.2,17.9c5.4,0,11.1-0.6,17.2-1.9
		c3.4-0.7,6.4-1.5,9-2.3c3.1-1,6.4,1,7.1,4.2l1.3,5.7c0.6,2.5-0.7,5.2-3,6.3c-3.3,1.6-7.3,2.9-11.9,4c-6.7,1.6-13.3,2.4-20,2.4
		c-17.6,0-32.4-3.4-44.6-10.1c-12.1-6.7-21.2-16.7-27.1-29.9c-5.9-13.2-8.6-29.2-7.9-48c0.8-17.8,4.9-33.7,12.3-47.8
		c7.4-14.1,17.6-25,30.5-32.6c12.9-7.7,27.5-11.5,43.7-11.5c16.2,0,30.2,3.4,42,10.1c11.8,6.7,20.6,16.4,26.6,29
		C714.6,360,717.2,374.6,716.5,391.3z M619.9,402.3c-0.7,8.4,0,14.7,2,19c2,4.3,5.3,6.4,9.8,6.4c3,0,5.8-1.4,8.4-4.1
		c2.4-2.6,4.5-6.2,6.1-10.9c0.2-0.4,0.2-0.9,0.3-1.4l3.3-38c0.3-3.2-2.2-6.1-5.5-6.1c0,0,0,0-0.1,0c-7.2,0-12.8,2.8-16.7,8.5
		C623.7,381.3,621.2,390.2,619.9,402.3z"/>
	<path class="st1" d="M839.5,330h-31c-3.1,0-5.6,2.5-5.6,5.6v103.2c0,3.1-2.5,5.6-5.6,5.6h-22.7c-3.1,0-5.6-2.5-5.6-5.6V335.6
		c0-3.1-2.5-5.6-5.6-5.6h-30.2c-3.1,0-5.6-2.5-5.6-5.6v-14.9c0-3.1,2.5-5.6,5.6-5.6h106.3c3.1,0,5.6,2.5,5.6,5.6v14.9
		C845.1,327.5,842.6,330,839.5,330z"/>
	<path class="st1" d="M364.5,655.5h-38.2c-2.5,0-4.6,1.6-5.4,4l-5.7,18.3c-0.7,2.4-2.9,4-5.4,4h-24c-3.9,0-6.6-3.9-5.3-7.6
		L328,544.9c0.8-2.2,2.9-3.7,5.3-3.7h24c2.4,0,4.5,1.5,5.3,3.7l47.8,129.4c1.4,3.7-1.4,7.6-5.3,7.6H381c-2.5,0-4.6-1.6-5.4-3.9
		l-5.7-18.4C369.1,657.1,366.9,655.5,364.5,655.5z M337.9,629.4h15c3.8,0,6.5-3.7,5.4-7.3l-7.5-24.2c-1.6-5.3-9.1-5.3-10.7,0
		l-7.5,24.2C331.4,625.7,334.1,629.4,337.9,629.4z"/>
	<path class="st1" d="M457.4,639.7v36.5c0,3.1-2.5,5.6-5.6,5.6h-22.7c-3.1,0-5.6-2.5-5.6-5.6V546.8c0-3.1,2.5-5.6,5.6-5.6h50.5
		c10.8,0,20.3,2,28.5,5.9c8.3,4,14.7,9.6,19.2,16.9c4.5,7.3,6.8,15.6,6.8,24.9c0,13.7-4.9,24.7-14.7,32.9
		c-9.8,8.2-23.3,12.3-40.4,12.3h-16C459.9,634.1,457.4,636.6,457.4,639.7z M457.4,602.3c0,3.1,2.5,5.6,5.6,5.6h16.6
		c6.6,0,11.6-1.6,15-4.9c3.4-3.3,5.2-7.9,5.2-13.9c0-6.6-1.8-11.8-5.3-15.7c-3.5-3.9-8.4-5.9-14.5-6h-17c-3.1,0-5.6,2.5-5.6,5.6
		V602.3z"/>
	<path class="st1" d="M586.1,639.7v36.5c0,3.1-2.5,5.6-5.6,5.6h-22.7c-3.1,0-5.6-2.5-5.6-5.6V546.8c0-3.1,2.5-5.6,5.6-5.6h50.5
		c10.8,0,20.3,2,28.5,5.9c8.3,4,14.7,9.6,19.2,16.9c4.5,7.3,6.8,15.6,6.8,24.9c0,13.7-4.9,24.7-14.7,32.9
		c-9.8,8.2-23.3,12.3-40.4,12.3h-16C588.7,634.1,586.1,636.6,586.1,639.7z M586.1,602.3c0,3.1,2.5,5.6,5.6,5.6h16.6
		c6.6,0,11.6-1.6,15-4.9c3.4-3.3,5.2-7.9,5.2-13.9c0-6.6-1.8-11.8-5.3-15.7c-3.5-3.9-8.4-5.9-14.5-6h-17c-3.1,0-5.6,2.5-5.6,5.6
		V602.3z"/>
</g>
<g>
	<path class="st1" d="M286.5,937c-8.5,0-16.2-5.7-18.5-14.2c-2.7-10.2,3.4-20.7,13.6-23.4v0c1.7-0.5,175.6-47.2,339.2-137.6
		c95-52.5,167.9-109.1,216.7-168.2c59.1-71.8,82.4-147.7,69-225.5c-14.6-85.4-94.6-148.4-219.4-172.8
		c-91.2-17.9-196.7-12.5-289.3,14.6c-98.8,29-175.3,80.3-215.3,144.6c-62.8,100.9-36.8,231.8,75,378.6c6.4,8.4,4.8,20.4-3.6,26.8
		c-8.4,6.4-20.4,4.8-26.8-3.6C72.7,553.5,100,414.9,150.1,334.3c23.5-37.8,57.1-71.2,99.9-99.3c39.4-25.9,85.5-46.7,137.1-61.8
		c98.4-28.8,210.4-34.4,307.4-15.4c141.2,27.7,232.3,102,249.7,203.9c15.3,89.4-10.7,175.7-77.4,256.5
		c-51.9,62.9-128.7,122.7-228.1,177.5c-87.7,48.4-177.3,84-237.1,105.4c-64.8,23.2-108.4,34.8-110.2,35.3
		C289.8,936.8,288.2,937,286.5,937z"/>
</g>
</svg>
