<?xml version="1.0" encoding="utf-8"?>
<!-- Generator: Adobe Illustrator 23.0.3, SVG Export Plug-In . SVG Version: 6.00 Build 0)  -->
<svg version="1.1" id="Laag_1" xmlns="http://www.w3.org/2000/svg" xmlns:xlink="http://www.w3.org/1999/xlink" x="0px" y="0px"
	 viewBox="0 0 800 800" style="enable-background:new 0 0 800 800;" xml:space="preserve">
<style type="text/css">
	.st0{fill:#FFFFFF;}
</style>
<g>
	<path class="st0" d="M572.3,326.6l99.2,99.2c10.2-15.7,21.6-53.1-12.2-87C625.5,305,588.1,316.4,572.3,326.6z"/>
	<path class="st0" d="M591.6,201.9c-2.5,0-4.9,0.1-7.4,0.2c-0.7-0.1-1.4-0.2-2.1-0.2H26.6c-9,0-16.3,7.3-16.3,16.3v363.6
		c0,9,7.3,16.3,16.3,16.3h555.5c0.7,0,1.4-0.1,2.1-0.2c2.5,0.1,4.9,0.2,7.4,0.2c109.4,0,198.1-88.7,198.1-198.1
		S701,201.9,591.6,201.9z M710.1,517.9c-2.4,2.4-4.5,4.4-6.4,6c-6.6,5.9-16.6,5.6-22.9-0.7L527.4,369.9c-22,29.9-15.7,66.9,9.8,92.5
		c17.6,17.6,34.9,21,52.7,20c4.8-0.3,9.6,1.4,13,4.9l42.1,42.1c9.2,9.2,4.8,24.9-7.8,28.1c-16.1,4.1-31.9,6.1-47.2,5.7h-5.4
		c-90.2,0-163.3-73.1-163.3-163.2l0-1.4c0-25.1,0-68.5-47.3-68.5c-51.2,0-51.2,46.8-51.2,64V546c0,9.3-7.5,16.8-16.8,16.8h-58.8
		c-9.3,0-16.8-7.5-16.8-16.8V394.7c0-16.7,0-64.6-46.2-64.6c-52.3,0-52.3,50.1-52.3,68.5V546c0,9.3-7.6,16.9-16.9,16.9H56.5
		c-9.3,0-16.9-7.6-16.9-16.9V270.7c0-9.3,7.5-16.8,16.8-16.8h52.7c9.3,0,16.8,7.5,16.8,16.8v16h1.1c7.2-12.8,27.3-43.4,85.2-43.4
		c27.3,0,64.6,9.5,89.1,55.1c18.9-30.1,50.7-55.1,98-55.1c21.7,0,56.2,5,81.3,31.2c2.3,2.4,4.4,4.8,6.4,7.1
		c61.6-56.9,162.3-63.1,227.1,1.8C780.5,349.8,776.6,451.4,710.1,517.9z"/>
</g>
</svg>
