<?xml version="1.0" encoding="utf-8"?>
<!-- Generator: Adobe Illustrator 23.0.3, SVG Export Plug-In . SVG Version: 6.00 Build 0)  -->
<svg version="1.1" id="Layer_1" xmlns="http://www.w3.org/2000/svg" xmlns:xlink="http://www.w3.org/1999/xlink" x="0px" y="0px"
	 viewBox="0 0 1080 1080" style="enable-background:new 0 0 1080 1080;" xml:space="preserve">
<style type="text/css">
	.st0{fill:#93CEBD;}
	.st1{fill:#161A3B;}
</style>
<rect class="st0" width="1081.4" height="1081.4"/>
<g>
	<path class="st1" d="M946.3,376h-0.5L587,426.7v-9.4c0-13.8-11.2-25.1-25.1-25.1h-0.5l-429.7,67.5c-13.6,0.3-24.5,11.4-24.5,25
		v194.1c0,13.8,11.2,25.1,25.1,25.1h0.5L525.5,644v9.4c0,13.8,11.2,25.1,25.1,25.1h0.5l395.7-58.3c13.6-0.3,24.5-11.4,24.5-25.1
		V401.1C971.3,387.3,960.1,376,946.3,376z M956.6,595.2c0,5.7-4.6,10.3-10.3,10.3h-0.5l-395.6,58.2c-5.5-0.2-9.9-4.8-9.9-10.3v-20.3
		h0V627l-408.4,62.2c-5.5-0.2-9.9-4.8-9.9-10.3V484.8c0-5.7,4.6-10.3,10.3-10.3h0.5l429.6-67.5c5.5,0.2,9.9,4.8,9.9,10.3v26.1h2
		c1-0.1,2-0.3,3-0.4l3.8-0.5c2-0.3,4-0.5,5.9-0.8v0l359.7-50.8c5.5,0.2,9.9,4.8,9.9,10.3V595.2z"/>
	<path class="st1" d="M251.7,540.7c0-5.8-1.1-11.3-3.3-16.6c-2.2-5.3-5.3-9.9-9.2-13.7c-3.9-3.8-8.6-6.8-14.1-8.7
		c-5.5-2-11.5-2.5-18-1.6l-55.7,7.5c-2.8,0.4-5,2.8-5,5.7v132.3c0,3.5,3.1,6.1,6.5,5.7l11.4-1.6c2.8-0.4,4.9-2.8,4.9-5.7v-40
		c0-2.9,2.1-5.3,4.9-5.7l34.1-4.7c6.5-0.9,12.4-3,17.8-6.4c5.3-3.4,9.9-7.5,13.7-12.4c3.8-4.9,6.7-10.3,8.8-16.2
		C250.7,552.7,251.7,546.8,251.7,540.7z M227,554.8c-1.1,3.4-2.6,6.4-4.5,9.1c-1.9,2.7-4.2,4.9-6.8,6.6c-2.6,1.7-5.6,2.8-8.8,3.2
		l-31.2,4.2c-3.4,0.5-6.5-2.2-6.5-5.7v-42.1c0-2.9,2.1-5.3,5-5.7l31.5-4.2c3-0.4,5.9-0.1,8.6,0.8c2.8,0.9,5.2,2.4,7.4,4.5
		c2.2,2.1,3.9,4.6,5.1,7.7c1.2,3.1,1.8,6.6,1.8,10.7C228.6,547.7,228.1,551.4,227,554.8z"/>
	<path class="st1" d="M385.7,496.6c-6-6-13.2-10.6-21.6-13.7c-8.4-3.1-17.7-4-27.9-2.6c-10,1.3-19.2,4.5-27.6,9.6
		c-8.4,5.1-15.7,11.4-21.8,19c-6.1,7.6-11,15.9-14.5,25.2c-3.5,9.2-5.3,18.6-5.3,28.2c0,2.7,0.2,5.4,0.5,8.1l-10.4,1.4
		c-4.9,0.7-8.9,5.2-8.9,10c0,4.9,4,8.3,8.9,7.6l14.5-2c0.1,0.3,0.2,0.7,0.4,1c3.3,8.3,8,15.4,14.1,21.4c6.1,6,13.3,10.4,21.7,13.4
		c8.4,3,17.8,3.7,28,2.3c9.8-1.3,18.9-4.6,27.3-9.7c8.4-5.1,15.7-11.4,21.9-18.9c6.2-7.5,11-15.8,14.4-25c3.4-9.2,5.1-18.5,5.1-28.1
		c0-9-1.6-17.6-4.9-25.8C396.3,509.8,391.6,502.6,385.7,496.6z M378.3,566c-2,6.4-5,12.4-8.9,17.9c-3.9,5.5-8.6,10.1-14.2,13.9
		c-5.6,3.8-12,6.2-19.3,7.2c-7,1-13.3,0.4-19-1.7c-5.7-2.1-10.5-5.3-14.5-9.6c-2.6-2.8-4.8-6-6.7-9.6l14.3-1.9
		c4.9-0.7,8.8-5.2,8.8-10s-4-8.3-8.8-7.6l-19.5,2.6c-0.4-2.6-0.6-5.3-0.6-8.1c0-1.6,0.1-3.3,0.2-4.9l47.1-6.4
		c4.9-0.7,8.8-5.2,8.8-10s-4-8.3-8.8-7.6l-42.8,5.8c2-5.1,4.5-9.9,7.7-14.2c3.9-5.4,8.7-9.9,14.4-13.7c5.7-3.8,12.1-6.2,19.4-7.1
		c6.9-0.9,13.1-0.3,18.7,1.8c5.6,2.1,10.4,5.3,14.3,9.6c4,4.2,7,9.3,9.2,15.3c2.1,6,3.2,12.4,3.2,19.2
		C381.3,553.2,380.3,559.6,378.3,566z"/>
	<path class="st1" d="M536.5,560.7l-13.3-5.9c-1.5-0.7-3.2,0-3.9,1.4c-1.7,3.3-3.6,6.3-5.9,8.9c-2.9,3.3-6,6.1-9.4,8.5
		c-3.4,2.4-6.9,4.2-10.6,5.5c-3.6,1.3-7.2,2.2-10.6,2.6c-6.6,0.8-12.7,0.1-18.2-2.1c-5.5-2.2-10.3-5.4-14.3-9.7
		c-4-4.3-7.1-9.4-9.3-15.3c-2.2-5.9-3.3-12.4-3.3-19.2c0-6.1,0.9-12.3,2.8-18.6c1.9-6.3,4.7-12.2,8.4-17.6c3.7-5.4,8.3-10,13.9-13.7
		c5.5-3.7,12-6.1,19.4-7.1c3.3-0.5,6.7-0.6,10.3-0.3c3.6,0.2,7,1,10.4,2.3c3.3,1.3,6.4,3.2,9.2,5.8c2.1,1.9,3.9,4.2,5.6,6.9
		c0.9,1.5,3,1.9,4.4,0.7l12.9-10.4c1.2-1,1.5-2.7,0.7-3.9c-4.7-7.5-11.2-13.3-19.6-17.4c-9.2-4.5-20.2-5.8-33.1-4
		c-10.7,1.5-20.2,4.9-28.6,10.2c-8.4,5.3-15.4,11.7-21.2,19.1c-5.8,7.5-10.2,15.6-13.1,24.4c-3,8.8-4.5,17.4-4.5,25.8
		c0,9,1.6,17.6,4.9,25.8c3.2,8.3,7.8,15.4,13.6,21.5c5.9,6.1,12.8,10.8,20.9,14.1c8.1,3.3,17.1,4.4,27,3.2c5.6-0.6,11.2-2,17-4.2
		c5.8-2.2,11.3-4.9,16.5-8.4c5.2-3.4,9.9-7.4,14.1-12c3.5-3.8,6.3-8,8.4-12.6C538.8,563.2,538.1,561.4,536.5,560.7z"/>
	<path class="st1" d="M632.9,535.8c-1.2-1.4-1.2-3.4-0.1-4.8l48.6-60.8c2.1-2.7-0.1-6.6-3.5-6.1l-14.1,1.9c-1,0.1-1.8,0.6-2.4,1.4
		l-59.7,73.1c-2.3,2.8-6.7,1.2-6.7-2.4v-58.3c0-2.3-2-4.1-4.3-3.8l-15,2c-1.9,0.3-3.3,1.9-3.3,3.8v134.8c0,2.3,2,4.1,4.3,3.8l15-2
		c1.9-0.3,3.3-1.9,3.3-3.8v-38.3c0-0.9,0.3-1.8,0.9-2.5l18.1-21.2c1.5-1.8,4.3-1.8,5.8,0.1l44.2,54c0.8,1,2.1,1.5,3.5,1.4l16.3-2.2
		c3-0.4,4.3-3.9,2.4-6.2L632.9,535.8z"/>
	<path class="st1" d="M799,570.4l-66.7,9c-2.3,0.3-4.3-1.5-4.3-3.8v-35.8c0-1.9,1.4-3.5,3.3-3.8l57.1-7.7c1.9-0.3,3.3-1.9,3.3-3.8
		v-11c0-2.3-2-4.1-4.3-3.8l-55.1,7.4c-2.3,0.3-4.3-1.5-4.3-3.8v-32.8c0-1.9,1.4-3.5,3.3-3.8l66.9-8.9c1.9-0.3,3.3-1.9,3.3-3.8V452
		c0-2.3-2-4.1-4.3-3.8L708.7,460c-1.9,0.3-3.3,1.9-3.3,3.8v134.7c0,2.3,2,4.1,4.3,3.8l90.3-12.2c1.9-0.3,3.3-1.9,3.3-3.8v-12.2
		C803.3,571.9,801.3,570.1,799,570.4z"/>
	<path class="st1" d="M926.6,431.1l-109.7,14.6c-1.9,0.3-3.3,1.9-3.3,3.8v12.2c0,2.3,2,4.1,4.3,3.8l38.9-5.2
		c2.3-0.3,4.3,1.5,4.3,3.8v113.5c0,2.3,2,4.1,4.3,3.8l15-2c1.9-0.3,3.3-1.9,3.3-3.8V459.9c0-1.9,1.4-3.5,3.3-3.8l40.6-5.4
		c1.9-0.3,3.3-1.9,3.3-3.8v-12.1C930.9,432.5,928.9,430.8,926.6,431.1z"/>
</g>
</svg>
